<svg width="93" height="111" viewBox="0 0 93 111" fill="none" xmlns="http://www.w3.org/2000/svg">
<path d="M10.2996 0.337145C9.23561 0.98497 9.50611 2.44258 10.8045 3.14439C11.3996 3.4683 11.5619 3.4683 12.4996 3.27035C13.762 3.01842 14.1947 2.67651 13.8341 2.24463C13.6538 2.01069 13.4013 1.9747 12.68 2.06468C11.634 2.19064 10.9848 1.88473 11.1832 1.36287C11.3275 1.00296 11.9586 0.98497 12.6439 1.34487C13.239 1.65079 13.8341 1.70478 13.8341 1.41685C13.8341 0.247169 11.598 -0.454641 10.2996 0.337145Z" fill="#424242"/>
<path d="M20.326 0.301161C19.8211 0.499108 19.4244 0.948986 19.4244 1.34488C19.4244 2.26263 19.8211 2.87447 20.6867 3.32434C21.4441 3.70224 21.5523 3.8462 21.6605 4.45804C21.7146 4.88992 22.0212 5.48376 22.3999 5.93364C22.7425 6.34753 23.031 6.74342 23.031 6.79741C23.013 7.22929 20.867 8.95683 17.5309 11.2422C14.9341 13.0237 11.9586 15.9929 10.3356 18.4403C8.58639 21.0676 8.04539 22.1293 6.94537 25.0085C6.06174 27.3299 6.00764 27.5458 5.84534 29.9571C5.73714 31.7027 5.75517 33.0343 5.8814 34.276C6.18797 36.8673 6.8011 40.7542 7.0716 41.726C7.57653 43.5795 7.90113 45.0911 8.69459 49.3919C9.14542 51.8572 9.97495 55.7442 10.5159 58.0296C11.0569 60.2969 11.7061 63.4641 11.9586 65.0477C12.193 66.6312 12.6078 68.8086 12.8422 69.9064C13.0947 70.9861 13.5275 73.2894 13.8341 75.017C14.4652 78.688 14.4833 78.778 14.9702 79.2998C15.8177 80.2356 22.2556 81.8011 25.195 81.7831C34.6084 81.7112 37.8363 81.2973 44.2922 79.2638C45.4103 78.9219 46.4382 78.634 46.5824 78.634C47.8087 78.634 55.04 75.1249 58.7368 72.7316C59.8369 72.0118 63.3714 68.5387 63.7681 67.7649C64.0206 67.3151 63.9665 67.0091 63.2632 64.0939C62.8304 62.3484 62.1271 59.2532 61.7123 57.2198C60.8828 53.2429 60.7024 52.4871 60.1795 50.8315C59.6385 49.086 59.5664 48.6001 59.8729 48.4741C60.0352 48.4202 61.1172 48.7441 62.2894 49.1939C63.4615 49.6258 66.0042 50.4536 67.9338 51.0115C69.8633 51.5693 71.9552 52.1811 72.5683 52.3791C73.1814 52.577 73.9208 52.721 74.1913 52.685C74.6602 52.631 74.6962 52.577 74.6782 51.8212C74.6602 51.0295 74.1913 48.1862 73.6323 45.5949C73.47 44.8931 73.2716 43.3635 73.1634 42.1938C73.0552 41.0242 72.8208 39.4226 72.6044 38.6488C72.406 37.875 72.0995 35.8775 71.9011 34.222C71.7027 32.5664 71.5044 30.9649 71.4503 30.659C71.3601 30.2991 71.4142 30.0471 71.5765 29.9212C71.7027 29.8132 72.947 29.1474 74.3175 28.4456C76.9865 27.0959 77.5996 26.628 78.2849 25.4584C78.7537 24.6846 79.5292 22.2192 79.7816 20.7796C79.9079 20.0058 80.0341 19.8079 80.7374 19.286C82.0718 18.3143 83.262 17.2706 83.262 17.0906C83.262 16.5508 80.6292 15.831 78.6996 15.831C77.4373 15.831 76.6799 16.1189 75.7241 16.9827C75.3274 17.3426 74.9307 17.6305 74.8405 17.6305C74.7503 17.6305 74.5339 17.1626 74.3716 16.5868C74.0651 15.4891 71.1257 10.0725 70.242 8.93883C69.2863 7.75115 68.7994 8.12905 68.2223 10.5044C67.9698 11.5121 67.9338 12.16 68.042 14.1394C68.1141 15.5071 68.0961 16.5508 68.0059 16.5508C67.9157 16.5508 67.6092 16.1009 67.3026 15.5251C66.2026 13.4556 64.0386 11.1882 63.5878 11.6381C63.2812 11.944 63.3894 14.2474 63.7681 15.777C63.9845 16.5868 64.1468 17.3965 64.1468 17.5945C64.1468 17.8824 63.2451 18.2603 58.4663 19.9519C54.1744 21.4814 52.7137 21.9313 52.4793 21.7874C52.299 21.6974 51.9022 21.1935 51.5957 20.6537C51.2891 20.1318 50.712 19.1241 50.2973 18.4403C49.0169 16.2269 47.2677 14.2654 45.1398 12.6638C42.02 10.3065 40.2888 9.49668 35.5821 8.25502C33.0214 7.5892 31.3083 7.37325 28.3328 7.37325C27.9902 7.37325 25.9885 5.95163 25.6999 5.51975C25.6278 5.39378 25.5557 4.88992 25.5557 4.36806C25.5557 3.8462 25.4655 3.23437 25.3573 3.00043C25.1229 2.49657 24.3114 1.97471 23.7704 1.97471C23.5359 1.97471 23.2474 1.75877 23.049 1.41686C22.8687 1.11094 22.5441 0.75104 22.3458 0.625074C21.949 0.337152 20.7228 0.139205 20.326 0.301161ZM30.7853 10.2525C33.1657 10.6304 35.6903 11.7461 36.7543 12.8978C38.1248 14.3554 40.5233 17.8284 41.5872 19.9159C42.0921 20.9056 42.2905 22.3092 41.9479 22.3272C41.8036 22.3272 40.6134 22.4352 39.279 22.5611L36.8625 22.7771L36.2313 21.4095C33.9231 16.3888 33.7969 16.1909 30.8033 12.6278C29.7033 11.3142 28.8016 10.1625 28.8016 10.0545C28.8016 9.94656 28.9459 9.91057 29.1262 9.96455C29.2885 10.0005 30.0459 10.1445 30.7853 10.2525ZM26.4393 11.0982C26.7819 11.4222 27.5574 12.8438 28.5492 14.9312C29.3967 16.7667 30.4246 18.9441 30.8214 19.7899C31.8312 21.9133 32.264 23.047 32.1558 23.2989C32.1198 23.4249 31.5066 23.5689 30.7492 23.6409C30.0279 23.6948 28.423 23.9648 27.1787 24.2167C23.7343 24.9365 24.0589 25.0805 23.8064 22.8491C23.2835 17.9904 23.7884 11.5481 24.7802 10.8463C25.2671 10.4864 25.8622 10.5764 26.4393 11.0982ZM39.0806 11.4761C39.7298 11.8181 40.8659 12.4479 41.6233 12.8618C43.2463 13.7435 43.8955 14.1934 45.1758 15.2551C46.6185 16.4608 50.2612 21.1755 50.2612 21.8233C50.2612 22.0213 49.8645 22.1113 48.512 22.1653C46.366 22.2732 46.0775 22.1473 45.4644 20.7256C44.5086 18.5122 43.8955 17.4685 42.7413 16.0109C40.8659 13.6716 39.279 12.07 38.0888 11.2962C36.7904 10.4504 37.4215 10.5584 39.0806 11.4761ZM22.3097 11.7641C22.3097 11.89 22.1835 12.3579 22.0212 12.7898C21.3179 14.8052 20.831 17.4325 20.6687 20.3118C20.5785 21.9313 20.5424 23.4249 20.6146 23.6049C20.6687 23.7848 20.6506 24.5406 20.5965 25.2784L20.4703 26.628L19.6227 27.0059C19.1719 27.2039 18.1079 27.6178 17.2604 27.9237C16.4128 28.2296 15.403 28.6255 15.0243 28.8055C14.1046 29.2373 14.0144 29.2373 14.0144 28.7155C14.0144 27.3838 15.4751 20.9596 16.2685 18.7282C17.062 16.5328 18.2883 14.6073 19.8932 12.9877C20.9933 11.908 21.4982 11.5121 21.8408 11.5121C22.1113 11.5121 22.3097 11.6201 22.3097 11.7641ZM14.9882 15.9569C14.4472 17.2166 13.8341 19.286 12.8242 23.281C12.0488 26.3041 11.7963 27.5998 11.7783 28.6975L11.7602 30.1371L9.86675 31.0549L7.97326 31.9726L7.91916 29.8132C7.84703 26.3581 8.42409 24.5766 11.075 20.1858C11.7422 19.0701 12.6258 17.7744 13.0045 17.3066C13.6537 16.5508 15.0243 15.2911 15.2046 15.2911C15.2407 15.2911 15.1505 15.597 14.9882 15.9569ZM65.7518 19.7359C65.878 20.0238 66.3829 20.7796 66.8698 21.4275C68.1862 23.209 68.7092 24.4686 68.619 25.6383C68.5469 26.4841 68.4026 26.772 67.4649 27.9597C66.8878 28.7155 66.0583 29.8312 65.6255 30.461C65.1927 31.0728 64.6878 31.7747 64.4894 32.0266C64.2911 32.2785 64.1829 32.6204 64.237 32.8364C64.3271 33.1063 64.3091 33.1423 64.1829 32.9263C63.9665 32.6024 63.155 28.4096 62.8845 26.2681C62.7763 25.4224 62.4697 23.7848 62.2353 22.5971C61.9828 21.4275 61.8025 20.4557 61.8385 20.4377C61.9648 20.3477 65.1567 19.286 65.337 19.268C65.4452 19.268 65.6255 19.466 65.7518 19.7359ZM59.4582 22.4172C59.5664 22.6691 59.6385 23.245 59.6385 23.7128C59.6385 24.1807 59.891 25.5303 60.1795 26.718C60.7565 28.9674 61.8385 34.5639 61.7303 34.6719C61.568 34.8338 59.7647 34.9958 58.5204 34.9418C57.4024 34.9058 57.1138 34.8338 57.0237 34.5819C56.9696 34.4199 56.1581 31.9186 55.2384 29.0574C53.3088 23.101 53.3088 23.5329 55.2564 22.957C55.8335 22.7771 56.7171 22.4892 57.204 22.3092C58.5745 21.8233 59.2418 21.8413 59.4582 22.4172ZM51.4694 24.5046C51.5957 24.7206 52.4432 27.5458 53.958 32.8364C54.7695 35.7156 57.8532 48.7621 57.763 48.924C57.7089 48.996 56.7351 49.6978 55.563 50.4716C53.8318 51.6413 52.84 52.1272 49.7923 53.3688C46.4021 54.7365 44.7791 55.2403 44.5627 55.0064C44.5086 54.9524 44.3463 54.3586 44.202 53.6747C44.0758 53.0089 43.625 51.1914 43.2282 49.6618C42.8135 48.1322 42.2905 46.0988 42.038 45.163C41.8036 44.2273 41.2807 41.8699 40.8839 39.9445C39.8921 35.0138 37.9986 25.8723 37.8904 25.5124C37.7281 24.9545 38.5396 24.7746 42.0561 24.5586C46.907 24.2527 51.2891 24.2347 51.4694 24.5046ZM32.8411 26.2502C33.1116 26.5561 34.2116 29.9392 34.2116 30.497C34.2116 30.623 34.6625 32.2965 35.2215 34.204C35.7805 36.1295 36.2674 37.875 36.3215 38.091C36.4297 38.5588 36.7182 38.4688 32.6788 39.2066C28.2066 40.0344 26.4393 40.3223 26.295 40.2144C26.2049 40.1784 26.0065 39.3866 25.8262 38.4688C25.6639 37.5511 25.3753 35.9855 25.195 34.9958C25.0147 34.0061 24.8163 32.7104 24.7442 32.1166C24.6901 31.5227 24.5097 30.371 24.3474 29.5613C24.131 28.3916 24.113 28.0137 24.2753 27.8157C24.5097 27.5278 26.4573 26.844 28.6213 26.2861C30.4427 25.8003 32.4263 25.7823 32.8411 26.2502ZM20.6867 28.8594C20.6867 28.8774 21.1375 31.3788 21.6966 34.384C22.9048 40.9702 22.9769 41.4201 22.6523 41.672C22.3277 41.9059 18.3784 42.8237 17.6571 42.8237C17.08 42.8237 17.0079 42.6977 16.6472 41.0242C15.403 35.2837 14.5374 31.0728 14.5915 31.0369C14.6636 30.9649 18.8473 29.2373 19.5145 29.0034C20.0555 28.8235 20.6867 28.7335 20.6867 28.8594ZM69.4846 31.4328C69.5387 31.7207 69.665 32.2245 69.7551 32.5664C69.8453 32.9084 69.9174 33.4662 69.9174 33.7721V34.366H67.4108C66.0223 34.366 64.778 34.312 64.6157 34.258C64.4534 34.204 64.3271 33.9701 64.3271 33.7541C64.3452 33.4122 64.3632 33.4122 64.5255 33.6821C64.9403 34.4199 66.3288 33.7361 68.0239 31.9546C68.5649 31.3968 69.0699 30.9469 69.1781 30.9469C69.2863 30.9469 69.4125 31.1628 69.4846 31.4328ZM12.4455 32.2425C12.5898 32.4765 12.9865 34.4379 13.3472 36.6153C14.2849 42.3558 14.4292 43.3815 14.2488 43.5435C13.8701 43.8854 10.1553 44.2453 9.97495 43.9394C9.65035 43.3995 7.70276 35.1577 7.70276 34.258C7.70276 33.9521 8.11753 33.6821 9.74052 32.8724C10.8405 32.3325 11.8684 31.8646 11.9766 31.8646C12.1029 31.8466 12.3193 32.0266 12.4455 32.2425ZM61.568 36.8313C62.091 36.9213 62.1812 37.0292 62.4336 37.875C62.5779 38.3969 62.7041 39.1167 62.7041 39.4766C62.7041 39.8365 62.8664 40.8442 63.0468 41.708C63.2451 42.5717 63.4976 44.1193 63.6058 45.163C63.714 46.1888 63.8402 47.1065 63.8943 47.1605C63.9304 47.2325 63.9124 47.3405 63.8402 47.3764C63.6419 47.5024 59.9992 46.6746 59.8188 46.4767C59.6926 46.3327 57.8171 37.1912 57.8352 36.7233C57.8352 36.5254 58.1417 36.5074 59.4221 36.5974C60.2877 36.6693 61.2434 36.7773 61.568 36.8313ZM68.3485 36.9213C69.5387 36.9573 70.5306 37.0292 70.5666 37.0832C70.6748 37.2812 71.324 41.9779 71.5404 44.2633C71.6667 45.397 71.9011 47.0525 72.0995 47.9343C72.2798 48.8161 72.406 49.5718 72.388 49.6078C72.2978 49.6798 66.8157 48.2582 66.6895 48.1142C66.5272 47.9703 65.2468 38.6668 65.2288 37.6411C65.2288 36.6873 65.2288 36.6693 65.7337 36.7773C66.0042 36.8313 67.1764 36.9033 68.3485 36.9213ZM36.7904 41.1681C36.9527 41.3481 37.5297 43.3095 38.0888 45.5409C38.6298 47.7543 39.4413 51.0654 39.8921 52.883C40.5774 55.5822 40.6856 56.23 40.4872 56.41C40.361 56.518 39.0806 56.8419 37.6379 57.1298C36.1953 57.3997 34.1756 57.8316 33.1296 58.0476C32.1017 58.2815 31.2001 58.4255 31.1279 58.3355C31.0558 58.2635 30.6591 56.9139 30.2623 55.3303C29.8656 53.7467 29.3426 51.7493 29.0902 50.9035C28.8377 50.0577 28.4049 48.3482 28.0984 47.1245C27.8098 45.8828 27.4311 44.5332 27.2688 44.1193C26.8541 43.0756 27.0164 42.9316 29.1262 42.4638C30.082 42.2478 31.9755 41.7979 33.31 41.474C36.1772 40.7542 36.4117 40.7362 36.7904 41.1681ZM23.6441 44.2453C23.7523 44.4072 24.6179 48.1142 25.213 50.9215C25.6458 53.0089 26.7278 57.3278 27.1246 58.6054C27.2869 59.1273 27.377 59.6131 27.3049 59.6671C27.1606 59.8111 22.8687 59.4512 21.4802 59.1633C20.308 58.9293 20.2719 58.8753 19.9834 56.7159C19.8752 55.8881 19.3883 53.4948 18.9014 51.4074C17.3686 44.8751 17.3686 44.8031 18.2883 44.8031C18.5588 44.7851 19.6047 44.6412 20.5965 44.4612C22.6703 44.0833 23.5179 44.0114 23.6441 44.2453ZM15.2767 46.2607C15.6194 46.9446 16.2144 49.9497 16.5571 52.577C16.7554 54.1966 17.044 56.0681 17.1882 56.7699C17.4948 58.3175 17.4948 58.4794 17.1882 58.4794C16.6653 58.4794 13.3652 57.3457 13.1849 57.1118C13.0767 56.9678 12.9144 56.518 12.8603 56.0861C12.7881 55.6722 12.3012 53.4408 11.7602 51.1194C11.2192 48.8161 10.8045 46.8546 10.8586 46.7826C10.8946 46.7106 11.4176 46.6027 11.9766 46.5307C12.5537 46.4587 13.4373 46.2967 13.9242 46.1708C14.9521 45.8828 15.1144 45.9008 15.2767 46.2607ZM58.5385 51.1734C58.809 51.4973 59.35 53.9447 60.1074 58.2095L60.7024 61.6286L60.2336 61.9885C59.9811 62.1864 59.4041 62.6363 58.9713 62.9962C57.9434 63.824 57.3843 64.1299 57.0597 64.0039C56.8433 63.932 53.8498 54.6285 53.8679 54.0706C53.8679 53.9627 54.0842 53.7467 54.3728 53.5848C54.6433 53.4228 55.581 52.757 56.4646 52.1092C57.3483 51.4613 58.1237 50.9215 58.1958 50.9215C58.268 50.9215 58.4303 51.0295 58.5385 51.1734ZM51.7399 57.5077C52.6596 60.153 53.8498 64.3279 53.9761 65.3176L54.0842 66.1454L52.4973 66.8472C48.3136 68.6647 48.1333 68.7367 47.9169 68.4667C47.8087 68.3228 47.6464 67.7829 47.5562 67.2611C47.0874 64.1479 46.6005 61.6106 46.1857 60.279C45.9332 59.4332 45.6988 58.5154 45.6808 58.2095C45.6627 57.7056 45.7168 57.6517 47.1956 57.1298C48.0431 56.8239 49.053 56.374 49.4497 56.1221C50.2792 55.5822 50.6399 55.4383 50.8924 55.4922C51.0006 55.5102 51.3793 56.428 51.7399 57.5077ZM41.8216 60.7468C41.8938 61.4306 42.1643 62.7623 42.4167 63.698C42.6692 64.6338 43.1381 66.4693 43.4446 67.7829C44.1119 70.5362 44.0938 70.5722 42.5249 71.0041C41.9659 71.148 40.902 71.4719 40.1626 71.7059C38.6839 72.1917 35.6182 72.8755 35.0231 72.8755C34.5903 72.8755 34.5543 72.7136 33.4903 67.567C33.2018 66.1814 32.7509 64.3818 32.4804 63.5541C32.2099 62.7083 32.0657 61.9885 32.1558 61.9165C32.246 61.8445 34.2297 61.3227 36.5559 60.7468C38.8822 60.189 40.92 59.6491 41.0643 59.5591C41.5511 59.2532 41.6954 59.4692 41.8216 60.7468ZM15.944 60.4589C16.8636 60.7468 17.7473 60.9988 17.8915 60.9988C18.0358 60.9988 18.1981 61.1787 18.2522 61.3947C18.3965 62.0605 18.8473 65.1196 18.9735 66.3973C19.0457 67.0451 19.2621 68.3408 19.4424 69.2765C19.6408 70.2123 19.8572 71.6159 19.9113 72.3717L20.0195 73.7753L18.7752 73.6493C18.0899 73.5954 17.2423 73.4514 16.8997 73.3434C16.3046 73.1455 16.2685 73.0915 16.1243 72.0658C16.0341 71.4719 15.7817 69.9783 15.5472 68.7367C15.3128 67.495 15.0603 66.0734 14.9882 65.5875C14.9341 65.0837 14.6456 63.644 14.357 62.3844C14.0685 61.1067 13.8341 60.045 13.8341 59.991C13.8341 59.8291 14.3029 59.937 15.944 60.4589ZM23.3917 61.5566C24.0409 61.7546 25.213 61.9525 26.0065 62.0065C28.0623 62.1325 28.2607 62.2044 28.2607 62.6723C28.2607 62.8882 28.423 63.5721 28.6213 64.1839C28.8016 64.7957 29.2525 66.6852 29.6131 68.4128C29.9738 70.1223 30.3886 71.9578 30.5509 72.4797C30.7492 73.2175 30.7673 73.5054 30.623 73.6493C30.3525 73.9193 26.2409 74.0272 24.8343 73.8293L23.8425 73.6853L23.6982 72.6956C23.4097 70.9141 22.5261 66.1634 22.0392 63.896C21.6785 62.2044 21.6244 61.6286 21.7867 61.4306C22.0392 61.1067 21.9851 61.1067 23.3917 61.5566Z" fill="#424242"/>
<path d="M17.5309 3.95418C17.3145 4.18812 16.9719 4.31408 16.521 4.31408C15.8358 4.31408 15.2046 4.72797 15.3308 5.08787C15.3669 5.19584 15.6013 5.44778 15.8718 5.64572C16.3587 6.00563 16.3587 6.00563 17.2063 5.64572C17.9998 5.32181 18.0719 5.23183 18.126 4.602C18.1981 3.72024 17.9637 3.46831 17.5309 3.95418Z" fill="#000000"/>
<path d="M79.4751 31.2887C79.1505 31.9006 79.3128 32.4764 79.8358 32.5304C80.7735 32.6384 80.7915 32.7103 80.0522 33.5921C79.0423 34.7978 78.898 35.1577 78.9161 36.3453C78.9161 38.6487 80.5932 40.3043 82.9195 40.3043C84.0916 40.3043 84.9752 39.8724 85.5884 39.0266C85.8408 38.6487 86.454 37.785 86.9228 37.1011C88.095 35.4096 89.0868 34.9957 89.9164 35.8775C90.4934 36.4893 90.5656 37.3351 90.1328 38.5947C89.6278 40.0703 89.0508 40.5562 87.9327 40.4482C86.9228 40.3403 86.6884 40.5202 86.6884 41.33C86.6884 41.8339 86.7605 41.9238 87.1933 42.0138C87.4638 42.0678 88.095 42.2298 88.5819 42.3557C90.8721 42.9856 92.0984 43.2375 92.2066 43.1295C92.2787 43.0755 92.3328 42.7156 92.3509 42.3377C92.3689 41.7799 92.2968 41.6359 91.8279 41.402C91.5394 41.24 91.2508 41.0961 91.2148 41.0781C91.1787 41.0601 91.4853 40.3583 91.9181 39.5125C92.6213 38.1269 92.6754 37.9109 92.6033 36.9212C92.4591 34.9777 90.9443 33.1602 89.3213 32.9803C87.536 32.7643 86.2015 33.7361 84.9211 36.1474C84.2539 37.4071 84.0556 37.623 83.5146 37.767C82.2703 38.1089 80.9178 37.479 80.9178 36.5613C80.9178 35.8235 81.4407 34.7618 82.2522 33.88L83.1539 32.8903L84.0736 33.0162C85.2638 33.1602 85.4802 32.9443 85.2097 31.8826L85.0293 31.1268H83.7129C83.0096 31.1268 81.8014 31.0728 81.062 31.0188C79.7817 30.9108 79.6735 30.9288 79.4751 31.2887Z" fill="#424242"/>
<path d="M79.1324 42.5897C78.7537 44.1013 78.7357 44.1733 79.0603 44.4072C79.3849 44.6412 79.7816 44.6232 80.4128 44.3532C80.6653 44.2453 80.8636 44.5332 81.5308 45.9188C82.7751 48.5461 82.7932 48.4201 81.1522 47.8803C79.6193 47.3944 79.4751 47.2864 79.6193 46.7466C79.7095 46.3507 79.4029 46.0628 78.88 46.0628C78.6455 46.0628 78.4111 46.3867 78.1045 47.0885C77.8521 47.6643 77.4193 48.6001 77.1307 49.1579C76.5717 50.2377 76.6078 50.4176 77.4914 50.6155C78.0504 50.7595 78.2668 50.6155 78.6455 49.8777C78.8078 49.5718 79.0603 49.3019 79.1865 49.3019C79.3308 49.3019 80.3948 49.6438 81.5669 50.0577C82.7571 50.4536 84.8129 51.1374 86.1474 51.5513L88.5818 52.3071L88.6359 53.1169C88.69 53.8907 88.7261 53.9446 89.4294 54.1426C89.8261 54.2686 90.2229 54.3046 90.295 54.2146C90.5114 53.9806 91.2327 50.0397 91.1065 49.8238C91.0344 49.7338 90.7639 49.5538 90.5114 49.4639C90.0786 49.3019 89.9704 49.3379 89.5376 49.8598L89.0507 50.4356L87.8244 50.1837C86.0392 49.8058 86.0933 49.5358 88.2212 48.5101C89.8622 47.7183 89.9884 47.6823 90.295 47.9523C90.4753 48.1142 90.818 48.2222 91.0524 48.1862C91.4131 48.1322 91.5032 47.9703 91.6655 46.9625C91.7918 46.3147 91.8819 45.4509 91.9 45.0371C91.918 44.3532 91.8819 44.2813 91.359 44.1733C91.0524 44.1013 90.7999 44.0833 90.7639 44.1193C90.7458 44.1373 90.6016 44.3892 90.4393 44.6412C90.277 44.9111 89.5015 45.4509 88.6359 45.8828C87.8064 46.3147 86.5802 46.9805 85.9129 47.3764C85.0113 47.8983 84.6326 48.0422 84.4883 47.8983C84.3801 47.7903 83.767 46.7466 83.1538 45.5769C82.5407 44.4072 81.7653 43.1476 81.4587 42.7697C81.044 42.2838 80.9358 41.9959 81.0079 41.726C81.1702 41.2581 80.8636 41.0241 80.0882 41.0241C79.5292 41.0241 79.5111 41.0421 79.1324 42.5897Z" fill="#424242"/>
<path d="M79.7455 51.9112C77.9242 52.1452 77.2209 52.4511 76.5176 53.2609C75.9225 53.9627 75.9045 54.9164 76.4274 56.464C76.9504 58.0296 77.9602 59.0733 80.0341 60.207C82.0718 61.3227 83.3161 61.7186 84.7768 61.7186C86.3096 61.7186 87.1211 61.4486 87.9326 60.6748C88.8884 59.7751 89.1228 58.8753 88.7622 57.5077C88.4015 56.1401 87.7703 55.0964 86.7064 54.1066C85.6244 53.0989 84.4342 52.4871 82.703 52.0552C81.5308 51.7493 81.1702 51.7313 79.7455 51.9112ZM84.2358 54.5025C86.0031 55.3663 87.049 56.7699 87.049 58.2815C87.049 59.3612 86.5982 59.6491 84.8129 59.6491C83.4964 59.6491 83.2079 59.5771 81.9997 59.0013C78.9881 57.5437 77.6176 55.4563 78.8619 54.2146C79.3127 53.7647 79.3668 53.7647 81.1882 53.8367C82.8292 53.9087 83.2079 53.9807 84.2358 54.5025Z" fill="#424242"/>
<path d="M73.993 60.3689C72.5142 60.8908 71.7749 61.7905 71.5945 63.2841C71.4503 64.5078 71.9191 65.4795 73.3618 67.0091C75.5799 69.3845 77.7439 70.6981 80.1062 71.094C83.1358 71.6159 84.8129 70.5362 85.0113 67.9449C85.1375 66.5053 84.885 65.7495 83.767 64.1299C82.8473 62.7803 81.7833 61.8805 80.2144 61.0887C78.3931 60.171 75.4717 59.8471 73.993 60.3689ZM79.0242 62.9782C80.3948 63.644 81.5669 64.7597 82.1079 65.9294C82.6309 67.0451 82.6489 67.657 82.1801 68.1428C81.4046 68.9706 80.0341 68.8806 78.2127 67.8909C75.7783 66.5413 74.2454 65.0297 74.2454 63.95C74.2454 63.1042 75.9406 62.1864 77.2209 62.3484C77.6176 62.4024 78.4291 62.6903 79.0242 62.9782Z" fill="#424242"/>
<path d="M69.1961 67.9989C67.8256 68.4487 67.3568 68.8626 65.9682 70.8781C64.9583 72.3537 64.8682 72.6956 65.4092 73.2354C65.878 73.7033 65.9502 73.6853 66.5453 73.1275C66.8158 72.8755 67.1043 72.6956 67.1945 72.7316C67.4469 72.8216 74.0651 79.6597 74.0651 79.8397C74.0651 79.9296 73.9028 80.1276 73.7045 80.3075C73.5061 80.4695 73.3438 80.7394 73.3438 80.8834C73.3438 81.2253 74.2455 82.5389 74.5881 82.6829C74.9127 82.8089 77.4554 80.3435 78.6816 78.688C80.9358 75.6648 81.1161 74.3152 79.4751 72.4437C78.4292 71.274 77.6718 70.9861 75.652 71.0041L73.8848 71.04V70.2663C73.8848 69.4025 73.434 68.7007 72.5864 68.2688C71.9733 67.9449 69.8634 67.7829 69.1961 67.9989ZM71.811 70.0863C72.1175 70.3742 72.2618 70.7161 72.2618 71.112C72.2618 71.7958 71.288 73.5954 70.9273 73.5954C70.5847 73.5954 68.0781 70.9141 68.1683 70.6621C68.3125 70.2123 69.6289 69.6364 70.5126 69.6364C71.1978 69.6364 71.4683 69.7264 71.811 70.0863ZM76.9324 73.2534C77.5996 73.4874 77.8521 73.8833 77.8521 74.729C77.8521 76.0787 76.8062 77.7342 75.9406 77.7342C75.5078 77.7342 72.9831 75.1969 72.9831 74.747C72.9831 74.4411 74.0832 73.5594 74.8225 73.2894C75.5979 73.0195 76.2111 73.0015 76.9324 73.2534Z" fill="#424242"/>
<path d="M84.2178 72.4437C83.3522 73.5773 82.6129 74.5851 82.5768 74.675C82.5407 74.765 83.6227 75.6648 84.9752 76.6905C89.4294 80.0556 89.4294 80.0556 90.6016 78.562C91.4852 77.4463 93 75.1249 93 74.909C93 74.675 91.9901 73.9552 91.6836 73.9552C91.5393 73.9552 90.9262 74.6031 90.3131 75.3949L89.195 76.8345L88.654 76.5285C88.3655 76.3486 88.131 76.1506 88.131 76.0787C88.131 76.0067 88.4556 75.3589 88.8524 74.6391C89.2491 73.9193 89.5737 73.1815 89.5737 73.0195C89.5737 72.7316 88.7442 72.1557 88.3474 72.1557C88.2753 72.1557 87.8605 72.6776 87.4277 73.3074C86.4179 74.837 86.2556 74.963 85.6785 74.693L85.2097 74.4951L86.0392 72.9475C86.49 72.0837 86.8687 71.292 86.8687 71.166C86.8687 70.9141 86.2916 70.3562 86.0031 70.3562C85.8949 70.3562 85.0834 71.292 84.2178 72.4437Z" fill="#424242"/>
<path d="M60.5582 76.7085C59.4221 77.4463 58.4122 78.1481 58.3221 78.2921C58.2139 78.472 58.304 78.7779 58.6286 79.2638C58.8991 79.6597 59.1516 80.0016 59.1877 80.0376C59.2237 80.0736 59.6205 79.8936 60.0533 79.6417C60.7926 79.1918 60.8828 79.1918 61.1533 79.4438C61.3156 79.6057 61.4418 79.8397 61.4418 79.9656C61.4418 80.1816 62.1451 81.0993 64.4894 83.9245C65.6255 85.2922 65.6436 85.3462 65.1386 85.2202C64.5075 85.0762 57.1139 81.4952 57.1139 81.3332C57.1139 81.2613 57.3122 81.0993 57.5647 80.9733C57.8171 80.8474 58.0155 80.5775 58.0155 80.3795C58.0155 79.9836 57.4745 78.9939 57.2401 78.9939C56.9335 78.9939 52.876 81.1713 52.6596 81.4412C52.4252 81.7651 52.6416 82.6469 53.1105 83.1687C53.3449 83.4387 53.399 83.4567 53.7957 83.2047C54.0302 83.0428 54.2826 82.9708 54.3728 83.0248C54.481 83.0788 54.9138 83.7626 55.3466 84.5184C55.7974 85.2922 56.8253 87.0737 57.6368 88.4593C58.4303 89.8629 59.0975 91.1766 59.0975 91.3745C59.0975 91.5905 58.9532 91.7884 58.7368 91.8604C58.5385 91.9144 58.304 92.1123 58.2139 92.2743C57.9975 92.7062 58.3942 94.1818 58.7368 94.2537C59.0073 94.2897 63.6599 91.7704 64.0747 91.3385C64.3452 91.0866 63.7501 89.665 63.3173 89.485C63.1369 89.4131 62.6681 89.557 62.1812 89.8269C61.7304 90.0789 61.2435 90.2408 61.1172 90.2048C60.991 90.1509 60.5221 89.3771 60.0533 88.4773C59.6024 87.5596 58.827 86.2279 58.3581 85.4901C57.8712 84.7523 57.4745 84.1045 57.4745 84.0325C57.4745 83.9425 57.7811 84.0325 58.1598 84.2125C58.9713 84.6084 63.6599 86.7858 65.0304 87.3976C65.9321 87.7935 65.9682 87.8475 65.6977 88.1534C65.5354 88.3333 65.4091 88.6033 65.4091 88.7832C65.4091 89.2871 65.9321 90.1509 66.2567 90.1509C66.5272 90.1509 67.6092 89.2691 69.8994 87.1457L71.0535 86.084L70.765 85.5261C70.2781 84.6084 69.8092 84.5904 69.124 85.4361C68.9436 85.6521 68.6912 85.832 68.5469 85.796C68.2403 85.7241 62.7041 78.3461 62.7041 78.0042C62.7041 77.8782 62.9566 77.5543 63.2632 77.3203L63.8222 76.8885L63.4074 76.1327C63.173 75.7368 62.9025 75.3949 62.7943 75.3949C62.7041 75.3949 61.6943 75.9887 60.5582 76.7085Z" fill="#424242"/>
<path d="M81.5128 76.7625C81.1882 76.9244 80.9177 77.1404 80.9177 77.2304C80.9177 77.3383 81.4948 78.544 82.1981 79.9296L83.4784 82.4489L82.8653 82.323C82.5407 82.251 81.6571 81.9991 80.9177 81.7651C79.0964 81.1893 78.5373 81.2073 77.816 81.8551C77.4373 82.197 77.293 82.4489 77.4012 82.5569C77.5094 82.6469 79.4931 83.3307 81.8194 84.1045L86.0391 85.4901L86.3637 85.0762C86.9408 84.3564 86.9408 83.9065 86.4359 83.2947C86.1654 82.9888 85.7867 82.395 85.5703 81.9811C84.885 80.6314 82.3423 76.4746 82.2161 76.4746C82.144 76.4746 81.8194 76.6185 81.5128 76.7625Z" fill="#424242"/>
<path d="M4.40271 80.7574C4.15024 81.0453 3.55515 82.251 3.55515 82.4849C3.55515 82.5389 3.87975 82.7548 4.27648 82.9528C4.67321 83.1507 4.99781 83.4386 4.99781 83.6006C4.99781 84.0865 3.17645 89.341 2.59939 90.5107C2.00429 91.7164 1.98626 91.7344 0.850161 91.5724C0.50753 91.5185 0.363264 91.6264 0.164898 92.0223C-0.0154339 92.3822 -0.0515004 92.6342 0.0747322 92.8321C0.327198 93.228 3.08628 94.6136 4.24041 94.9015L5.19617 95.1535L5.55684 94.5956C6.00767 93.8398 6.00767 93.8398 5.28634 93.4079C4.29451 92.7961 4.24041 92.6522 4.56501 91.7164C4.88961 90.7267 5.23224 90.5827 6.44046 90.8526C8.17166 91.2485 10.8225 90.9246 11.8504 90.1688C12.4636 89.7189 13.0767 88.8012 13.3111 87.9554C13.6718 86.6058 12.68 84.4824 11.2012 83.4386C10.4979 82.9348 6.1339 80.8833 5.06994 80.5414C4.81747 80.4695 4.60107 80.5414 4.40271 80.7574ZM8.69462 84.5723C9.86678 85.1302 10.6061 86.0299 10.7143 86.9657C10.8225 87.9374 10.4619 88.4053 9.36185 88.7112C8.56839 88.9092 7.08966 88.6932 6.5126 88.2793C6.22407 88.0634 6.20603 87.9374 6.4044 87.1456C6.6749 85.922 7.45033 84.2124 7.72082 84.2124C7.84706 84.2124 8.27985 84.3744 8.69462 84.5723Z" fill="#424242"/>
<path d="M47.0153 83.7266C45.8792 84.3204 45.3201 85.3102 44.6709 87.9375C44.0217 90.5827 44.0037 90.8887 44.5447 92.3643C45.4103 94.7576 47.1054 96.827 48.7645 97.5648C50.0268 98.1227 51.74 98.1047 52.7498 97.5289C54.1925 96.7191 55.3466 94.7036 55.5991 92.6162C56.104 88.2074 52.9121 83.9425 48.7284 83.4027C47.9891 83.3127 47.6825 83.3667 47.0153 83.7266ZM50.117 86.1919C51.235 86.9297 52.3892 88.2074 52.822 89.1791C53.0744 89.755 53.1826 90.4388 53.2007 91.4645C53.2367 92.8321 53.1826 93.0301 52.5695 94.1998C51.5596 96.1432 51.5236 96.1792 50.7301 95.9093C49.7563 95.6034 48.0792 93.9658 47.4661 92.7242C46.9612 91.7524 46.9251 91.5365 46.9251 89.701C46.9251 87.4156 47.0153 86.9657 47.6645 86.2099C48.2776 85.4721 49.0169 85.4721 50.117 86.1919Z" fill="#424242"/>
<path d="M15.3128 84.3384C15.2227 84.5184 15.0964 84.9682 15.0243 85.3281C14.8981 86.0659 14.9882 86.1739 15.9981 86.4618C16.5751 86.6418 16.6292 86.7138 16.6833 87.4156C16.7194 87.8475 16.503 89.1971 16.1965 90.4747C15.8899 91.7344 15.5112 93.372 15.3489 94.1098C14.9341 96.0352 14.88 96.1072 13.9603 95.9813C13.221 95.8733 13.1849 95.8913 12.8783 96.5211C12.3013 97.7448 12.3013 97.7448 15.7276 98.5006C17.9817 99.0224 18.0719 98.9864 18.2703 97.7628C18.3785 97.025 18.3785 96.989 17.7112 96.6831C17.044 96.3592 17.044 96.3592 17.1342 95.4234C17.2965 93.9478 17.4588 93.7499 18.6129 93.7499C19.7851 93.7499 20.1097 94.0738 20.6867 95.8373C21.1376 97.1509 21.0474 97.4209 20.1818 97.4389C19.767 97.4569 19.6588 97.5828 19.4424 98.2306C19.3162 98.6625 19.2621 99.0584 19.3523 99.1484C19.5867 99.3643 24.8704 100.102 25.0147 99.9222C25.2672 99.6163 25.5918 98.6085 25.5016 98.3746C25.4475 98.2306 25.0868 98.0687 24.7081 98.0147C23.4819 97.8168 22.8327 97.2229 22.3638 95.9093C21.8409 94.3617 21.8589 94.1458 22.454 93.9118C24.7081 93.0121 25.5557 91.9683 25.5557 90.1148C25.5377 88.4953 24.9065 87.2716 23.6442 86.3899C22.8146 85.814 20.3441 84.9862 17.9276 84.4824C15.403 83.9425 15.5112 83.9605 15.3128 84.3384ZM20.4162 87.6315C20.5605 87.6315 20.9753 87.9014 21.3359 88.2074C22.472 89.2151 22.8327 90.6727 22.1114 91.3385C21.6064 91.7884 19.1539 91.9324 18.6129 91.5365C18.2522 91.2665 18.2522 91.2485 18.685 89.521C19.1178 87.8295 19.4244 87.3616 19.9293 87.5415C20.0736 87.5955 20.29 87.6315 20.4162 87.6315Z" fill="#424242"/>
<path d="M75.5258 84.6803C75.2193 84.9323 74.9668 85.2382 74.9668 85.3641C74.9668 85.6161 76.8783 87.5056 79.2767 89.611L80.9718 91.1046L81.6751 90.3488C82.144 89.8629 82.3243 89.521 82.2342 89.3591C81.9817 88.9272 76.5537 84.2125 76.3013 84.2125C76.175 84.2125 75.8324 84.4284 75.5258 84.6803Z" fill="#000000"/>
<path d="M40.7036 85.2742C40.7036 86.1019 40.6495 86.1199 39.6938 85.724C38.0888 85.0582 34.8969 85.85 33.9412 87.1457C33.4182 87.8835 33.4362 90.1149 33.9772 91.1406C34.7346 92.5802 35.5641 93.0841 37.9986 93.6599C39.7479 94.0738 40.6315 94.5237 41.0643 95.2435C41.5331 95.9993 41.5151 96.4312 41.0102 97.133C40.1987 98.2127 39.6397 98.5186 38.4495 98.5186C36.556 98.5186 35.4018 97.4749 35.1674 95.5494C35.0772 94.7216 35.0231 94.6316 34.4641 94.4877C33.2379 94.1458 33.2198 94.1638 32.9854 97.5828C32.8772 99.2744 32.8411 100.732 32.9313 100.822C33.1838 101.074 34.5903 101.164 34.8608 100.93C35.0051 100.822 35.1133 100.498 35.1133 100.21C35.1133 99.5083 35.3838 99.4183 36.051 99.9402C36.8986 100.57 37.5658 100.786 38.738 100.786C40.0725 100.804 41.1364 100.318 42.02 99.3284C43.7332 97.4389 43.7873 94.8476 42.1463 93.21C41.2807 92.3463 40.5954 92.0403 39.2069 91.8964C37.9085 91.7704 36.7183 91.1046 36.0871 90.1688C35.5461 89.3411 35.6363 88.7112 36.3576 88.1534C36.7724 87.8115 36.9888 87.7755 38.3232 87.8655C40.1446 87.9734 40.5233 88.2254 40.5233 89.3411C40.5233 90.1688 40.7397 90.3308 41.8036 90.3308C42.6151 90.3308 42.7053 90.0429 42.6512 87.2536L42.5971 84.6623L41.6594 84.6083L40.7036 84.5544V85.2742Z" fill="#424242"/>
<path d="M26.9262 86.2279C26.8721 86.4618 26.818 86.7318 26.818 86.8577C26.818 87.1816 27.5574 87.8115 27.9181 87.8115C28.423 87.8115 28.4771 88.0814 28.2787 89.7549C28.1705 90.6187 28.0443 92.8321 27.9722 94.6856L27.864 98.0687H27.1607C26.5475 98.0687 26.4213 98.1407 26.259 98.5546C26.1688 98.8245 26.0967 99.3283 26.1328 99.6703C26.1869 100.318 26.1869 100.318 27.2328 100.426C27.8279 100.498 29.0902 100.606 30.064 100.66L31.8133 100.786L31.9395 100.228C32.1379 99.2204 31.9215 98.8065 31.0739 98.5905C30.028 98.3206 29.9198 98.1227 30.1001 96.6831C30.1722 96.0172 30.3165 93.9478 30.4067 92.0943C30.4968 90.2408 30.6231 88.6392 30.6952 88.5313C30.7493 88.4413 31.0378 88.3513 31.3083 88.3513C31.5788 88.3513 31.9395 88.2433 32.0838 88.1174C32.4985 87.8115 32.6788 86.6778 32.3723 86.4258C32.0657 86.1739 29.6312 85.832 28.1886 85.832C27.1426 85.832 27.0344 85.868 26.9262 86.2279Z" fill="#424242"/>
<path d="M71.7208 88.3873C70.7109 89.2151 69.4486 90.1868 68.9076 90.5647C68.3666 90.9426 67.9338 91.3565 67.9338 91.4825C67.9338 91.5905 68.1321 91.9864 68.3846 92.3642C68.9076 93.12 69.0338 93.1021 70.2961 92.1123C70.6568 91.8244 71.0716 91.5905 71.2158 91.5905C71.3601 91.5905 72.2978 92.6342 73.3257 93.9298C74.3356 95.2075 75.2192 96.2692 75.2553 96.2692C75.6159 96.2692 76.9504 95.2615 76.9504 94.9915C76.9504 94.9376 76.3914 94.2357 75.7241 93.462C75.0569 92.6702 74.1552 91.6085 73.7405 91.0686L72.9831 90.1149L73.8847 89.0711L74.7864 88.0274L74.3175 87.4696C74.0651 87.1637 73.7765 86.9117 73.6864 86.9117C73.6142 86.9117 72.7126 87.5775 71.7208 88.3873Z" fill="#424242"/>
<path d="M65.0124 94.0198C63.4976 95.4774 63.0468 96.3052 63.0468 97.6728C63.0288 100.138 64.4714 101.596 67.0682 101.794C68.3486 101.884 68.4387 101.848 70.0617 101.056C70.9814 100.606 71.7749 100.12 71.829 99.9762C71.9733 99.6163 71.2339 98.2487 70.8913 98.2487C70.747 98.2487 70.3142 98.4826 69.9535 98.7705C69.0879 99.4543 68.1682 99.6883 66.96 99.5263C65.8059 99.3644 65.4993 99.1664 65.2288 98.3206C64.8862 97.3309 65.1206 96.809 66.5272 95.5314L67.8076 94.3437L67.2125 93.5879C66.8879 93.192 66.5272 92.8501 66.419 92.8501C66.3108 92.8501 65.6797 93.39 65.0124 94.0198Z" fill="#424242"/>
<path d="M58.9172 97.097C58.268 97.3489 57.3663 97.6728 56.8975 97.8348C56.4106 97.9787 56.0319 98.1947 56.0319 98.3386C56.0319 98.4646 56.5548 100.12 57.204 101.992C57.8532 103.881 58.3762 105.555 58.3762 105.717C58.3762 106.149 58.7368 106.059 61.4418 104.979C63.9845 103.971 64.219 103.773 63.8042 103.125C63.6058 102.819 62.8304 102.945 61.3517 103.557C60.7566 103.809 60.1615 104.007 60.0533 104.007C59.927 104.007 59.6926 103.701 59.5483 103.323C59.2778 102.711 59.2778 102.639 59.5664 102.478C61.3517 101.416 61.9828 100.912 61.9828 100.588C61.9828 99.9942 61.532 99.9762 60.1615 100.516C58.7909 101.056 58.4483 101.002 58.1778 100.264C57.9975 99.7783 58.0877 99.7063 59.8188 98.8245C61.2615 98.1047 61.4779 97.7988 61.009 97.079C60.6484 96.5211 60.3959 96.5211 58.9172 97.097Z" fill="#424242"/>
<path d="M48.512 100.768C48.2776 100.858 48.0972 101.002 48.0972 101.074C48.0972 101.146 48.3497 102.873 48.6382 104.889C48.9448 106.904 49.1792 108.668 49.1792 108.794C49.1792 108.956 49.3776 109.046 49.6842 109.046C50.3333 109.046 55.2203 108.038 55.9236 107.75C56.3925 107.57 56.4286 107.48 56.3384 106.85C56.2843 106.454 56.1941 106.095 56.14 106.041C56.0859 105.987 54.9859 106.113 53.7056 106.328C51.9924 106.616 51.253 106.67 51.0006 106.526C50.6399 106.346 50.5137 105.915 49.9907 102.747C49.612 100.588 49.4678 100.39 48.512 100.768Z" fill="#424242"/>
<path d="M40.3249 102.028C40.1626 102.118 39.9643 102.406 39.9102 102.657C39.7299 103.341 40.2528 109.694 40.5233 110.125C40.7577 110.503 42.9217 110.557 44.9956 110.215C47.5743 109.82 47.7366 109.73 47.7366 109.01C47.7366 107.606 47.7907 107.642 45.1939 107.75L42.8676 107.84L42.6152 107.228C42.4709 106.886 42.2365 105.663 42.0922 104.493C41.9479 103.323 41.7315 102.262 41.6053 102.118C41.3528 101.812 40.7577 101.776 40.3249 102.028Z" fill="#424242"/>
<path d="M32.4985 102.729C30.8394 103.485 29.3607 105.897 29.6312 107.426C29.9017 108.83 30.9837 110.215 32.264 110.737C34.3018 111.583 37.097 110.287 37.6019 108.272C37.8904 107.156 37.8724 106.652 37.5117 105.375C37.1511 104.079 36.2314 103.089 34.9871 102.675C33.9051 102.316 33.3821 102.316 32.4985 102.729ZM35.2395 105.159C35.9428 105.915 35.9969 106.598 35.492 107.696C35.0231 108.722 34.5002 109.136 33.6887 109.118C32.805 109.082 32.2821 108.794 31.8673 108.092C31.2001 107.012 31.4886 105.771 32.6247 104.817C33.4362 104.133 34.428 104.259 35.2395 105.159Z" fill="#424242"/>
<path d="M23.2114 103.233C21.7507 103.971 21.1556 104.907 21.0834 106.58C20.9752 108.452 21.2638 109.316 22.1113 109.856C23.4097 110.665 24.5278 110.917 26.0606 110.737L27.4492 110.575L27.5033 109.766C27.5574 108.596 27.377 108.38 26.5836 108.74C25.7901 109.118 24.2573 109.136 23.554 108.758C22.5622 108.254 22.2015 106.724 22.8507 105.681C23.3015 104.943 24.1491 104.709 25.8442 104.853C27.1426 104.961 27.1607 104.961 27.3951 104.475C27.6836 103.827 27.4311 103.449 26.5295 103.143C25.0868 102.657 24.2934 102.675 23.2114 103.233Z" fill="#424242"/>
</svg>
