<?xml version="1.0" encoding="UTF-8" standalone="no"?>
<!DOCTYPE svg PUBLIC "-//W3C//DTD SVG 1.1//EN" "http://www.w3.org/Graphics/SVG/1.1/DTD/svg11.dtd">
<svg width="100%" height="100%" viewBox="0 0 949 1000" version="1.1" xmlns="http://www.w3.org/2000/svg"
    xmlns:xlink="http://www.w3.org/1999/xlink" xml:space="preserve" xmlns:serif="http://www.serif.com/"
    style="fill-rule:evenodd;clip-rule:evenodd;stroke-linejoin:round;stroke-miterlimit:2;">
    <g transform="matrix(1,0,0,1,-37.5351,-12)">
        <g transform="matrix(1.51074,0,0,1.51074,-299.099,-259.021)">
            <path
                d="M295.826,819.235C363.118,867.102 622.555,837.767 692.581,725.342L660.399,572.536C660.399,572.536 751.679,599.09 774.72,605.793C775.864,606.126 777.1,605.854 777.998,605.072C778.897,604.289 779.336,603.103 779.163,601.924C773.783,565.185 742.576,352.088 737.394,316.703C737.214,315.474 736.496,314.388 735.435,313.742C734.375,313.096 733.081,312.955 731.906,313.358C708.014,321.563 602.284,357.872 602.284,357.872C557.958,279.01 500.279,243.468 402.328,239.943L381.888,223.461C383.898,208.312 382.222,196.438 366.338,197.2C353.987,161.494 308.633,193.875 351.32,212.629C350.413,222.16 356.394,231.051 363.618,236.618C228.538,332.601 231.059,379.205 222.827,448.552L295.826,819.235ZM407.375,684.959C407.049,683.355 405.605,682.227 403.97,682.299C386.233,683.039 370.135,680.695 353.027,675.847C352.383,675.663 351.691,675.823 351.193,676.271C350.696,676.719 350.464,677.391 350.579,678.05C353.21,693.09 364.727,758.931 367.697,775.904C368.102,778.219 370.111,779.908 372.461,779.908L421.535,779.908C422.789,779.908 423.976,779.345 424.769,778.374C425.563,777.403 425.878,776.128 425.629,774.899C422.054,757.282 410.124,698.505 407.375,684.959ZM325.805,677.347C325.43,674.705 323.394,672.608 320.765,672.155C312.483,670.727 294.915,667.699 289.058,666.689C288.617,666.613 288.167,666.759 287.853,667.079C287.54,667.399 287.404,667.852 287.489,668.292C289.865,680.533 302.825,747.318 307.108,769.387C307.916,773.555 311.445,776.646 315.683,776.899C321.793,777.263 330.372,777.775 335.577,778.086C336.696,778.152 337.786,777.713 338.546,776.889C339.306,776.064 339.655,774.942 339.498,773.832C337.039,756.507 328.241,694.509 325.805,677.347ZM514.766,663.426C514.553,662.433 513.917,661.583 513.025,661.098C512.133,660.614 511.074,660.543 510.126,660.904C488.327,669.124 464.075,675.451 437.067,679.653C436.156,679.794 435.354,680.329 434.875,681.116C434.396,681.903 434.288,682.862 434.581,683.735C443.89,711.634 450.472,739.942 455.363,768.503C455.571,769.727 456.258,770.818 457.271,771.534C458.285,772.25 459.542,772.534 460.765,772.321C482.603,768.437 505.883,762.163 530.126,754.29C532.309,753.579 533.602,751.334 533.121,749.089C529.852,733.83 518.048,678.745 514.766,663.426ZM589.859,631.227C589.603,630.63 589.108,630.168 588.494,629.955C587.881,629.741 587.206,629.796 586.635,630.106C572.859,637.564 560.791,642.571 548.447,647.135C547.072,647.642 545.96,648.681 545.36,650.017C544.76,651.353 544.723,652.875 545.257,654.239C554.442,678.576 557.566,707.274 562.265,734.453C562.477,735.657 563.205,736.707 564.258,737.329C565.311,737.95 566.582,738.079 567.738,737.683C583.688,732.148 598.631,725.132 613.168,717.52C614.552,716.794 615.262,715.217 614.889,713.7C608.212,686.506 601.867,659.373 589.859,631.227ZM651.298,594.038C651.137,593.254 650.6,592.601 649.862,592.29C649.125,591.98 648.282,592.053 647.609,592.486C641.019,596.723 625.043,606.994 615.742,612.974C611.616,615.626 609.853,620.766 611.483,625.392C617.741,643.158 632.737,685.732 637.246,698.531C637.553,699.402 638.253,700.078 639.135,700.354C640.018,700.629 640.978,700.472 641.727,699.93C648.28,695.184 663.065,684.477 667.636,681.168C668.471,680.563 668.875,679.524 668.667,678.514C666.476,667.856 654.376,609.009 651.298,594.038ZM368.969,541.511C368.322,538.871 365.819,537.12 363.117,537.417C354.017,538.418 334.078,540.611 324.193,541.699C322.697,541.863 321.337,542.643 320.44,543.851C319.542,545.058 319.187,546.585 319.46,548.065C323.251,568.6 336.101,638.21 339.285,655.459C339.713,657.776 341.591,659.551 343.929,659.848C354.51,661.19 383.588,664.879 395.014,666.328C396.077,666.463 397.138,666.066 397.852,665.266C398.565,664.466 398.839,663.366 398.584,662.325C393.642,642.165 373.918,561.7 368.969,541.511ZM301.59,555.06C301.15,553.334 299.463,552.232 297.706,552.523C290.548,553.708 272.977,556.62 266.33,557.721C265.649,557.834 265.043,558.22 264.652,558.789C264.261,559.358 264.119,560.062 264.259,560.738C266.889,573.51 278.469,629.718 280.906,641.547C281.185,642.905 282.157,644.018 283.465,644.48C289.584,646.637 307.397,652.918 315.042,655.613C315.808,655.883 316.658,655.74 317.293,655.233C317.927,654.727 318.256,653.929 318.162,653.123C314.353,620.414 310.112,588.682 301.59,555.06ZM480.764,523.699C479.754,519.291 477.024,515.468 473.183,513.08C469.341,510.692 464.705,509.937 460.304,510.983C440.905,515.591 409.972,522.939 398,525.783C396.698,526.092 395.576,526.915 394.89,528.064C394.204,529.213 394.012,530.591 394.358,531.883C399.865,552.488 421.024,631.656 426.348,651.576C427.031,654.133 429.604,655.701 432.19,655.138C446.169,652.091 487.924,642.99 502.257,639.866C503.55,639.584 504.677,638.796 505.386,637.679C506.095,636.562 506.327,635.207 506.032,633.917C501.941,616.075 487.682,553.873 480.764,523.699ZM592.829,381.283C592.185,379.305 590.406,377.917 588.332,377.773C554.726,375.505 520.854,377.107 486.853,380.577C485.419,380.725 484.114,381.473 483.262,382.637C482.41,383.8 482.09,385.269 482.382,386.681C498.617,465.391 513.745,544.258 535.33,622.213C536.037,624.761 538.575,626.346 541.175,625.864C577.19,618.915 610.206,600.476 642.375,578.789C644.096,577.627 644.94,575.538 644.51,573.507C630.863,509.217 613.98,446.383 592.829,381.283ZM748.467,483.405C748.178,481.202 746.35,479.524 744.13,479.423C735.288,479.02 713.649,478.034 705.968,477.684C705.281,477.653 704.615,477.925 704.147,478.43C703.679,478.934 703.457,479.618 703.539,480.301C705.157,493.698 712.225,552.226 714.066,567.467C714.332,569.673 715.892,571.506 718.027,572.122C726.648,574.609 748.766,580.99 757.833,583.605C758.709,583.858 759.653,583.652 760.344,583.057C761.035,582.463 761.38,581.56 761.261,580.656C759.041,563.781 750.616,499.736 748.467,483.405ZM684.623,493.991C683.287,483.685 674.496,475.979 664.103,476.004C658.143,476.018 652.058,476.032 648.166,476.042C647.133,476.044 646.155,476.505 645.496,477.3C644.837,478.095 644.564,479.141 644.753,480.156C647.22,493.441 655.011,535.394 658.201,552.574C659.03,557.04 662.575,560.504 667.059,561.231C673.79,562.321 683.478,563.891 689.189,564.816C690.3,564.996 691.43,564.641 692.238,563.858C693.047,563.075 693.437,561.956 693.293,560.84C691.696,548.529 687.353,515.037 684.623,493.991ZM277.055,439.844C276.863,439.16 276.379,438.595 275.733,438.301C275.087,438.006 274.344,438.011 273.702,438.315C266.683,441.63 247.291,450.791 240.417,454.038C238.957,454.727 238.123,456.293 238.366,457.889C242.508,484.922 248.881,510.283 254.739,536.028C255.156,537.866 256.831,539.141 258.714,539.055C265.233,538.755 279.999,538.076 288.564,537.682C290.237,537.605 291.801,536.833 292.879,535.552C293.957,534.272 294.451,532.599 294.241,530.938C290.292,499.764 285.517,470.13 277.055,439.844ZM345.176,414.406C345.095,413.926 344.804,413.506 344.384,413.26C343.963,413.014 343.455,412.967 342.996,413.131C335.466,415.829 307.093,425.995 297.659,429.374C295.89,430.008 294.844,431.834 295.192,433.68C298.081,449.015 310.453,514.695 313.005,528.245C313.125,528.885 313.502,529.448 314.048,529.803C314.594,530.158 315.261,530.275 315.895,530.126C323.675,528.297 348.076,522.563 358.344,520.15C360.944,519.539 362.621,517.011 362.173,514.378C358.996,495.688 347.294,426.86 345.176,414.406ZM449.306,404.882C447.846,399.307 444.223,394.544 439.239,391.649C434.256,388.753 428.324,387.965 422.757,389.457C406.367,393.851 384.87,399.614 375.493,402.127C372.81,402.847 371.1,405.472 371.526,408.216C374.21,425.502 383.335,484.268 386.154,502.425C386.376,503.853 387.157,505.134 388.325,505.986C389.492,506.837 390.951,507.189 392.378,506.964C407.608,504.559 450.905,497.724 466.789,495.217C468.307,494.977 469.653,494.106 470.494,492.82C471.335,491.534 471.593,489.952 471.203,488.465C467.174,473.086 456.083,430.75 449.306,404.882ZM660.733,365.853C660.533,362.866 658.97,360.136 656.493,358.454C654.016,356.772 650.903,356.323 648.052,357.239C638.844,360.186 626.278,364.222 617.768,366.956C612.537,368.636 609.612,374.194 611.189,379.457C617.203,399.526 631.027,445.657 635.357,460.11C636.137,462.712 638.569,464.466 641.285,464.385C649.209,464.148 665.334,463.666 673.256,463.429C674.382,463.396 675.434,462.857 676.12,461.963C676.805,461.069 677.053,459.914 676.794,458.817C668.942,425.474 662.933,392.029 660.733,365.853ZM730.691,334.502C730.587,333.43 730.016,332.459 729.129,331.847C728.242,331.236 727.131,331.047 726.092,331.331C715.962,334.1 690.167,341.153 679.653,344.027C677.073,344.732 675.465,347.298 675.956,349.928C679.433,368.573 692.337,437.756 695.698,455.776C696.167,458.287 698.337,460.122 700.89,460.167C710.066,460.328 731.123,460.698 739.463,460.845C740.351,460.86 741.204,460.496 741.807,459.843C742.41,459.191 742.705,458.312 742.619,457.428C740.849,439.187 732.646,354.64 730.691,334.502ZM270.997,425.931C272.077,425.39 272.756,424.283 272.749,423.075C272.589,381.571 284.91,344.542 300.462,305.254C300.734,304.568 300.487,303.786 299.87,303.381C299.253,302.976 298.436,303.061 297.915,303.584C266.544,334.942 252.413,364.359 240.46,397.908C239.892,399.503 239.627,401.189 239.677,402.881C239.892,410.16 240.511,431.008 240.731,438.416C240.748,438.993 241.059,439.522 241.555,439.818C242.051,440.115 242.664,440.137 243.18,439.878C249.313,436.803 265.598,428.638 270.997,425.931ZM357.504,275.17C357.856,274.15 357.51,273.02 356.647,272.372C355.783,271.725 354.601,271.71 353.721,272.334C321.231,296.681 296.956,342.68 289.714,415.645C289.648,416.297 289.927,416.937 290.449,417.334C290.97,417.732 291.661,417.829 292.273,417.593C301.358,414.079 329.633,403.137 340.037,399.11C342.357,398.212 343.841,395.928 343.719,393.443C341.854,351.958 347.899,305.227 357.504,275.17ZM391.011,271.259C388.791,267.759 384.678,265.945 380.596,266.666C376.514,267.386 373.271,270.499 372.383,274.547C366.613,304.772 366.286,339.191 369.288,378.963C369.35,379.79 369.757,380.554 370.41,381.067C371.062,381.58 371.899,381.796 372.718,381.662C384.362,379.757 424.553,373.182 435.735,371.353C436.446,371.236 437.067,370.805 437.425,370.18C437.782,369.554 437.838,368.8 437.577,368.128C424.18,333.698 410.027,301.798 391.011,271.259ZM411.72,261.049C410.677,260.976 409.697,261.553 409.254,262.5C408.812,263.448 408.998,264.57 409.724,265.323C438.813,295.732 460.289,329.625 471.17,361.097C472.033,363.67 474.501,365.356 477.212,365.226C486.123,364.804 505.799,363.856 516.411,363.345C518.018,363.268 519.483,362.401 520.324,361.03C521.165,359.659 521.274,357.96 520.615,356.493C498.594,307.239 479.517,265.754 411.72,261.049ZM483.755,268.152C483.022,267.794 482.138,268.029 481.679,268.702C481.219,269.376 481.323,270.285 481.923,270.837C510.625,297.435 531.865,326.294 547.692,356.496C549.2,359.403 552.217,361.214 555.492,361.176C562.821,361.098 575.812,360.951 582.474,360.875C583.373,360.865 584.201,360.386 584.658,359.612C585.114,358.838 585.133,357.881 584.707,357.09C561.409,314.106 525.429,288.636 483.755,268.152ZM319.779,212.371C319.779,212.371 316.162,215.973 311.834,217.907C310.519,218.494 309.115,218.659 307.774,218.465C307.268,218.392 306.978,217.885 306.531,217.493C304.143,215.892 300.905,216.531 299.304,218.919C297.703,221.306 298.342,224.544 300.73,226.145C305.269,228.406 309.649,228.269 313.553,225.905C319.318,222.416 323.644,215.235 323.644,215.235C324.435,214.169 324.211,212.661 323.144,211.871C322.078,211.08 320.57,211.304 319.779,212.371ZM286.046,186.622C281.677,182.919 277.637,181.006 274.043,179.991C271.532,179.282 269.219,179.318 267.137,179.531C262.76,179.977 259.446,182.207 257.184,184.892C254.915,187.584 253.797,191.029 253.921,194.401C254.044,197.716 255.182,201.08 257.685,203.678C259.891,205.965 262.918,208.026 267.162,208.604C271.901,209.249 278.238,208.56 286.187,204.552C287.926,203.897 288.806,201.954 288.152,200.215C287.497,198.476 285.554,197.596 283.815,198.25C278.272,199.674 274.023,199.588 270.757,198.879C267.635,198.201 266.212,196.321 266.267,194.316C266.29,193.52 266.589,192.741 267.197,192.138C267.959,191.383 268.911,190.656 270.303,190.428C273.413,189.92 277.396,190.104 282.499,192.345C284.078,193.324 286.155,192.836 287.134,191.257C288.112,189.678 287.625,187.601 286.046,186.622Z" />
            <g transform="matrix(1,0,0,1,0.645513,0.194499)">
                <path
                    d="M849.755,320.003C850.163,319.69 850.366,319.179 850.284,318.672C850.203,318.164 849.85,317.743 849.364,317.573C845.084,316.08 835.868,312.865 827.267,309.865C815.566,305.783 802.589,308 792.907,315.735C789.228,318.674 785.735,321.465 783.521,323.233C782.976,323.669 782.251,323.811 781.582,323.613C780.912,323.414 780.382,322.902 780.161,322.239C770.319,292.987 754.85,260.468 738.13,249.458C737.508,249.063 736.721,249.035 736.072,249.385C729.328,253.325 724.51,281.135 726.886,316.737C719.998,300.578 706.837,286.561 692.735,273.697C692.259,273.264 691.569,273.164 690.989,273.442C690.41,273.721 690.057,274.323 690.098,274.965C690.463,280.739 691.176,292.002 691.81,301.998C692.616,314.732 696.947,326.991 704.319,337.406C711.789,347.96 721.449,361.608 728.367,371.382C733.705,378.923 733.845,388.973 728.721,396.66C719.64,410.286 705.671,431.243 699.099,441.103C696.964,444.306 697.346,448.562 700.017,451.334C700.018,451.334 700.018,451.334 700.018,451.335C702.62,454.034 706.827,454.365 709.819,452.106C717.432,446.358 731.623,435.644 740.651,428.828C746.139,424.685 752.09,421.194 758.385,418.426C766.641,414.797 778.918,409.399 789.528,404.734C802.943,398.836 812.675,386.811 815.646,372.461C816.934,366.241 818.285,359.718 819.417,354.25C821.159,345.837 825.867,338.332 832.683,333.102C838.919,328.317 846.257,322.687 849.755,320.003Z" />
            </g>
        </g>
    </g>
</svg>