<?xml version="1.0" encoding="UTF-8" standalone="no"?>
<!DOCTYPE svg PUBLIC "-//W3C//DTD SVG 1.1//EN" "http://www.w3.org/Graphics/SVG/1.1/DTD/svg11.dtd">
<svg width="100%" height="100%" viewBox="0 0 238 50" version="1.1" xmlns="http://www.w3.org/2000/svg"
    xmlns:xlink="http://www.w3.org/1999/xlink" xml:space="preserve" xmlns:serif="http://www.serif.com/"
    style="fill-rule:evenodd;clip-rule:evenodd;stroke-linejoin:round;stroke-miterlimit:2;">
    <g transform="matrix(1,0,0,1,-9.78102,-11.8754)">
        <path fill="currentColor"
            d="M220.085,46.692C219.542,46.445 218.986,46.323 218.871,46.417C218.734,46.528 217.791,48.514 216.75,50.847L214.858,55.09L214.384,54.177C214.14,53.688 213.547,52.298 213.08,51.112C211.93,48.19 211.328,47.494 209.754,47.244C208.925,47.114 208.454,47.191 208.428,47.441C208.425,47.672 209.606,50.914 211.026,54.686L213.626,61.509L214.491,61.495C216.007,61.487 216.582,61.021 216.84,59.743C216.951,59.08 217.317,57.982 217.622,57.277C218.636,55.005 221.312,47.453 221.181,47.292C221.106,47.2 220.586,46.935 220.085,46.692ZM147.133,46.675C143.693,47.007 142.267,47.613 140.871,49.376C138.331,52.534 138.701,55.886 141.846,58.792C143.404,60.215 143.557,60.261 146.457,60.897C148.101,61.256 149.62,61.44 149.837,61.31C150.39,60.993 150.833,58.476 150.392,58.126C150.206,57.979 149.409,57.838 148.651,57.841C146.837,57.839 145.413,57.201 144.021,55.759C142.699,54.372 142.506,53.804 143.021,52.438C143.59,50.813 144.425,50.38 147.542,50.169L150.405,49.946L150.409,48.364C150.395,47.523 150.279,46.714 150.14,46.603C150.001,46.493 148.636,46.544 147.133,46.675ZM239.896,46.744C237.551,46.706 235.496,46.711 235.342,46.751C235.188,46.791 235.054,49.101 235.017,51.891C234.912,61.068 234.912,61.068 238.032,61.162C240.37,61.242 244.92,60.98 245.206,60.77C245.515,60.541 245.482,58.503 245.183,58.097C245.042,57.906 243.586,57.727 241.94,57.689L238.944,57.615L238.821,56.6C238.778,56.043 238.811,55.539 238.906,55.469C239.001,55.399 240.175,55.196 241.515,55.019C242.854,54.841 244.147,54.55 244.361,54.392C244.742,54.111 244.695,52.452 244.307,51.927C244.237,51.831 243.142,51.792 241.886,51.834C238.877,51.991 238.552,51.899 238.346,50.872L238.15,50.059L241.007,49.646C242.59,49.399 244.007,49.128 244.174,49.005C244.507,48.759 244.682,47.451 244.4,47.069C244.295,46.926 242.264,46.766 239.896,46.744ZM64.575,46.921C64.295,47.041 63.922,47.479 63.791,47.88C63.38,48.968 63.162,59.446 63.531,60.196C63.851,60.854 67.38,61.308 70.83,61.099C75.114,60.889 75.394,60.77 75.516,59.592C75.753,57.296 75.836,57.364 71.571,57.102L67.751,56.856L67.442,55.812C67.264,55.229 67.087,53.189 67.049,51.251C67.011,49.313 66.836,47.542 66.654,47.285C66.293,46.742 65.326,46.582 64.575,46.921ZM172.773,46.992C170.627,47.006 168.008,46.943 166.926,46.867C165.844,46.79 164.863,46.872 164.733,47.033C164.621,47.171 164.465,47.882 164.397,48.626C164.284,50.133 164.464,50.241 167.101,50.281C167.86,50.286 168.632,50.416 168.816,50.565C169,50.714 169.12,53.017 169.094,55.736C169.064,58.414 169.095,60.684 169.141,60.722C169.602,61.095 172.35,61.186 172.629,60.841C172.685,60.772 172.696,59.297 172.643,57.618C172.609,55.916 172.554,53.627 172.583,52.508L172.601,50.506L177.064,49.702L177.041,48.504C177.035,47.852 176.927,47.232 176.812,47.139C176.719,47.064 174.879,46.983 172.773,46.992ZM40.822,47.409C38.095,48.652 35.663,52.617 36.108,55.131C36.553,57.439 38.332,59.716 40.437,60.574C43.787,61.965 48.382,59.835 49.212,56.522C49.687,54.687 49.657,53.858 49.064,51.759C48.471,49.628 46.959,48.001 44.914,47.32C43.135,46.73 42.275,46.73 40.822,47.409ZM91.127,47.022C90.719,47.085 90.379,47.254 90.354,47.37C90.329,47.486 90.136,50.349 89.9,53.688C89.693,57.033 89.458,59.949 89.414,60.152C89.358,60.412 89.645,60.625 90.138,60.732C91.181,60.957 99.385,61.033 100.615,60.814C101.431,60.688 101.52,60.556 101.594,59.512C101.644,58.857 101.624,58.248 101.556,58.143C101.487,58.037 99.676,57.858 97.544,57.759C94.691,57.628 93.484,57.458 93.128,57.139C92.611,56.724 92.558,55.988 92.817,50.715C92.957,47.115 92.794,46.746 91.127,47.022ZM193.037,47.107C192.395,46.995 191.743,47.008 191.586,47.143C191.272,47.413 190.965,51.821 190.91,57.067L190.865,60.781L192.561,60.848C193.669,60.912 194.289,60.77 194.394,60.485C194.662,59.707 194.722,47.887 194.452,47.572C194.316,47.415 193.68,47.219 193.037,47.107ZM121.702,47.249C120.557,47.225 118.984,47.152 118.17,47.104C117.339,47.018 116.629,47.109 116.538,47.328C116.459,47.519 116.217,50.363 116.03,53.615C115.833,56.893 115.578,59.765 115.477,60.011C115.206,60.668 115.81,60.757 120.599,60.811C125.095,60.873 125.576,60.719 125.351,59.474C125.242,58.884 123.984,58.59 121.353,58.593C120.291,58.603 119.262,58.531 119.098,58.463C118.906,58.384 118.741,57.772 118.759,57.107C118.731,56.008 118.776,55.898 119.316,55.834C122.695,55.339 123.97,54.969 124.173,54.476C124.545,53.574 123.871,53.264 121.45,53.225C119.028,53.187 118.542,52.89 118.593,51.599C118.623,50.748 118.806,50.695 121.989,50.44C124.633,50.25 125.154,49.921 124.892,48.533C124.694,47.459 124.31,47.3 121.702,47.249ZM15.184,48.093C12.782,49.306 11.804,50.845 11.685,53.596C11.507,56.673 11.982,58.094 13.375,58.982C15.51,60.312 17.348,60.726 19.868,60.43L22.151,60.164L22.24,58.834C22.329,56.91 22.032,56.555 20.728,57.147C19.423,57.768 16.903,57.798 15.747,57.176C14.116,56.348 13.523,53.832 14.591,52.118C15.332,50.904 16.725,50.52 19.512,50.756C21.647,50.934 21.677,50.934 22.062,50.135C22.536,49.07 22.121,48.448 20.639,47.945C18.267,47.146 16.963,47.176 15.184,48.093ZM45.329,51.404C46.485,52.647 46.574,53.77 45.744,55.575C44.973,57.262 44.113,57.942 42.779,57.913C41.326,57.854 40.466,57.38 39.784,56.226C38.688,54.45 39.162,52.41 41.03,50.842C42.364,49.717 43.994,49.924 45.329,51.404ZM80.316,13.059C80.316,14.42 80.227,14.449 78.656,13.798C76.017,12.704 70.77,14.005 69.199,16.136C68.339,17.349 68.368,21.017 69.258,22.704C70.503,25.07 71.867,25.899 75.869,26.845C78.745,27.526 80.198,28.266 80.909,29.449C81.68,30.692 81.651,31.402 80.82,32.555C79.486,34.33 78.567,34.833 76.61,34.833C73.497,34.833 71.6,33.117 71.215,29.952C71.066,28.591 70.977,28.443 70.058,28.206C68.042,27.644 68.013,27.674 67.627,33.295C67.449,36.076 67.39,38.472 67.538,38.62C67.953,39.035 70.266,39.183 70.71,38.798C70.948,38.62 71.126,38.088 71.126,37.614C71.126,36.461 71.57,36.313 72.667,37.171C74.061,38.206 75.158,38.561 77.085,38.561C79.279,38.591 81.028,37.792 82.481,36.165C85.297,33.058 85.386,28.798 82.688,26.106C81.265,24.686 80.138,24.183 77.856,23.946C75.721,23.739 73.764,22.644 72.727,21.106C71.837,19.745 71.985,18.709 73.171,17.792C73.853,17.23 74.209,17.171 76.403,17.319C79.397,17.496 80.02,17.911 80.02,19.745C80.02,21.106 80.376,21.372 82.125,21.372C83.459,21.372 83.607,20.899 83.518,16.313L83.429,12.053L81.888,11.964L80.316,11.875L80.316,13.059ZM94.827,13.287C92.771,13.751 91.465,15.088 89.326,18.99C87.179,22.92 87.022,23.398 87.259,25.971C87.626,30.139 89.447,34.142 91.773,36.014C93.543,37.433 96.273,38.127 98.121,37.637C100.755,36.959 103.438,34.242 104.72,31.032C107.381,24.239 104.106,16.116 97.686,13.494C96.549,13.039 96.039,12.996 94.827,13.287ZM244.635,12.476C243.525,12.221 242.68,12.724 242.816,13.577C243.044,15.112 242.937,15.172 241.222,14.373C238.878,13.282 238.245,13.206 236.367,13.74C232.709,14.72 230.793,18.088 231.783,21.782C232.282,23.644 233.344,24.863 234.948,25.477C235.656,25.717 237.288,26.323 238.574,26.777C241.759,27.918 242.838,29.317 241.791,31.01C241.064,32.187 239.752,32.661 237.568,32.51C235.009,32.336 233.992,31.626 233.688,29.805C233.43,28.155 233.044,27.859 231.758,28.204C230.958,28.418 230.846,28.571 230.887,29.297C230.916,29.749 230.928,30.82 230.935,31.647C230.909,35.552 231.031,37.607 231.249,37.733C231.365,37.824 231.96,37.757 232.567,37.625C233.461,37.416 233.659,37.24 233.831,36.396C233.965,35.869 234.071,35.35 234.084,35.285C234.097,35.22 235.342,35.408 236.87,35.735C239.369,36.263 239.735,36.257 241.276,35.721C244.301,34.665 246.543,31.486 246.138,28.832C245.721,25.905 243.61,24.199 239.236,23.192C236.952,22.669 236.525,22.445 236.066,21.648C234.993,19.817 235.418,17.401 236.876,17.011C238.047,16.697 239.956,17.075 241.701,17.989L243.657,19L243.848,20.514C244.126,22.465 244.561,22.717 246.132,21.836L247.255,21.228L246.695,19.137C246.396,18.02 245.968,16.079 245.739,14.881C245.365,12.802 245.291,12.638 244.635,12.476ZM54.732,14.277C54.676,14.667 54.625,15.117 54.642,15.324C54.687,15.854 55.986,16.783 56.577,16.733C57.404,16.663 57.53,17.098 57.438,19.867C57.38,21.297 57.481,24.94 57.621,27.987L57.913,33.544L56.761,33.641C55.757,33.727 55.56,33.862 55.352,34.563C55.241,35.017 55.193,35.853 55.3,36.408C55.478,37.462 55.478,37.462 57.207,37.493C58.192,37.528 60.275,37.53 61.877,37.483L64.76,37.447L64.89,36.515C65.075,34.837 64.663,34.189 63.244,33.953C61.493,33.656 61.289,33.347 61.384,30.963C61.41,29.862 61.358,26.452 61.249,23.403C61.139,20.355 61.123,17.713 61.226,17.526C61.302,17.372 61.762,17.184 62.206,17.146C62.649,17.109 63.225,16.882 63.443,16.656C64.08,16.097 64.218,14.215 63.681,13.844C63.144,13.474 59.108,13.252 56.745,13.453C55.031,13.598 54.859,13.672 54.732,14.277ZM126.095,13.709C123.868,13.75 121.849,13.851 121.598,13.973C121.29,14.13 121.15,14.635 121.18,15.596C121.213,16.383 121.268,17.08 121.287,17.161C121.306,17.243 122.016,17.337 122.839,17.362C124.262,17.377 124.388,17.456 124.546,18.043C124.631,18.41 124.604,18.846 124.495,19.022C124.307,19.323 124.49,21.215 125.303,27.196C125.698,30.092 125.677,30.183 125.082,29.568C124.326,28.818 117.126,17.391 117.267,17.165C117.33,17.065 117.747,17.011 118.209,17.055C118.671,17.099 119.182,16.895 119.354,16.619C119.699,16.066 119.805,14.215 119.478,14.011C119.05,13.745 111.495,13.253 110.959,13.441C110.35,13.689 109.885,15.108 110.085,16.244C110.177,16.824 110.237,16.896 111.01,16.89C111.478,16.868 111.893,16.987 111.971,17.141C112.075,17.31 112.084,18.641 112.031,20.072C111.987,21.543 111.871,24.923 111.798,27.562C111.684,30.21 111.473,32.623 111.3,32.899C111.113,33.201 110.739,33.351 110.375,33.263C110.051,33.166 109.552,33.238 109.285,33.386C108.608,33.8 107.877,36.204 108.293,36.602C108.639,36.888 117.321,37.42 118.276,37.178C118.872,37.062 119.278,34.561 118.831,33.934C118.642,33.676 117.863,33.469 116.949,33.422C116.101,33.382 115.28,33.184 115.136,33.024C115.006,32.839 115.025,31.352 115.154,29.689C115.323,28.016 115.4,25.484 115.387,24.047C115.35,22.594 115.36,21.345 115.422,21.245C115.501,21.119 115.85,21.511 116.222,22.092C117.01,23.35 121.657,30.466 123.037,32.511C123.95,33.848 123.954,33.955 123.31,34.146C122.927,34.256 122.516,34.523 122.36,34.774C121.922,35.477 121.9,37.137 122.353,37.419C122.73,37.655 125.007,37.365 130.049,36.395L132.582,35.918L132.665,34.888C132.784,33.185 132.145,32.752 130.454,33.336C130.014,33.48 129.506,33.511 129.336,33.336C128.971,32.969 127.664,17.86 127.962,17.383C128.071,17.207 128.705,16.975 129.336,16.915L130.492,16.799L130.571,15.384C130.588,14.628 130.508,13.915 130.357,13.821C130.231,13.743 128.306,13.693 126.095,13.709ZM162.89,13.923C160.84,12.731 159.82,12.607 155.827,13.104C152.91,13.475 152.392,13.738 152.32,14.993C152.257,16.08 152.358,16.149 153.694,16.27C154.299,16.327 154.835,16.485 154.89,16.635C155.055,17.044 153.886,32.645 153.665,32.842C153.554,32.94 153.134,32.957 152.696,32.91C152.28,32.844 151.771,32.939 151.595,33.096C151.175,33.47 150.546,36.013 150.744,36.591C150.943,37.128 156.75,37.557 160.124,37.255C166.301,36.721 168.155,35.468 168.661,31.407C168.956,28.844 168.482,27.599 166.253,25.137L164.278,23.006L165.228,22.16C166.289,21.216 166.659,19.896 166.263,18.383C165.991,17.276 163.885,14.507 162.89,13.923ZM184.89,14.989C183.103,13.131 181.253,12.637 178.895,13.384C176.966,14.001 175.831,15.364 174.524,18.564C172.478,23.5 171.986,27.633 173.001,31.438C174.282,36.327 177.039,38.102 181.052,36.635C183.293,35.844 184.252,34.952 185.915,32.176C187.309,29.881 187.931,27.676 188.048,24.79C188.182,21.439 186.678,16.847 184.89,14.989ZM31.104,14.393C31.017,14.712 30.957,15.478 30.956,16.081C30.988,17.311 31.168,17.457 32.888,17.598C33.876,17.704 33.987,17.803 34.298,18.917C34.495,19.602 34.577,21.848 34.491,24.006C34.399,26.136 34.312,28.898 34.286,30.139C34.233,33.377 34.169,33.51 32.645,33.601C31.419,33.664 31.366,33.704 31.073,34.818C30.534,36.976 30.534,36.976 36.301,37.099C40.103,37.22 40.237,37.133 40.166,35.097C40.104,33.872 40.093,33.814 38.919,33.534C37.739,33.225 37.739,33.225 37.585,31.687C37.375,29.256 37.574,28.884 39.435,28.516C41.326,28.141 41.953,28.559 43.447,31.219C44.594,33.193 44.535,33.657 43.145,33.963C42.481,34.125 42.347,34.362 42.205,35.476C42.14,36.213 42.179,36.869 42.353,36.985C42.8,37.258 51.557,36.759 51.732,36.423C52.042,35.849 52.243,34.12 52.023,33.771C51.89,33.557 51.256,33.411 50.628,33.445C48.587,33.518 47.351,32.767 46.174,30.799C44.836,28.47 44.796,28.116 45.681,27.549C49.029,25.377 50.062,23.423 49.47,20.434C48.923,17.828 47.514,16.056 45.196,15.038C43.674,14.374 39.425,13.829 35.367,13.789C31.123,13.726 31.304,13.72 31.104,14.393ZM224.068,13.833C221.507,13.913 221.385,13.917 221.161,14.535C220.937,15.154 221.144,15.773 221.854,16.65C222.138,17.001 221.772,17.444 219.88,19.121C216.284,22.269 216.491,22.241 216.608,19.403C216.688,16.761 216.794,16.484 217.712,16.47C218.379,16.435 218.697,15.821 218.462,14.994C218.357,14.623 217.739,14.397 216.491,14.228C215.467,14.087 213.793,13.823 212.781,13.617C210.822,13.218 210.554,13.356 210.638,14.842C210.661,15.791 210.986,16.068 212.323,16.336C212.88,16.455 213.42,16.733 213.477,16.933C213.542,17.161 213.479,18.997 213.35,21.037C213.259,23.097 213.101,26.656 213.045,28.952L212.943,33.141L211.687,33.591C210.487,34.024 210.418,34.105 210.421,35.306C210.4,35.99 210.521,36.634 210.696,36.708C211.163,36.945 217.72,36.316 218.004,36.019C218.114,35.865 218.278,35.356 218.306,34.916C218.368,34.159 218.263,34.004 217.243,33.554L216.114,33.043L215.961,30.99C215.757,27.997 216.209,27.961 218.786,30.866C220.775,33.106 220.889,33.289 220.6,33.895C220.425,34.253 220.408,34.844 220.57,35.198C220.817,35.744 221.114,35.814 222.781,35.618C223.862,35.527 225.268,35.282 225.931,35.125C227.021,34.846 227.118,34.756 227.054,33.881C227.03,33.364 226.945,32.956 226.872,32.916C226.836,32.895 226.373,32.78 225.901,32.637C225.401,32.501 224.199,31.517 223.128,30.342C222.072,29.224 220.468,27.584 219.543,26.706C218.312,25.515 217.915,24.98 218.077,24.688C218.2,24.468 219.575,23.03 221.15,21.535C222.724,20.04 224.368,18.248 224.828,17.593C225.41,16.719 225.817,16.419 226.276,16.411C227.089,16.458 227.322,15.868 226.973,14.642C226.722,13.758 226.686,13.737 224.068,13.833ZM9.93,15.26C9.758,15.866 9.723,18.076 9.888,18.424C9.926,18.504 10.56,18.596 11.289,18.61C12.018,18.625 12.703,18.824 12.817,19.064C13.16,19.786 14.157,28.875 14.124,31.019C14.089,33.229 14.075,33.268 12.273,33.828C11.726,33.99 11.588,34.252 11.573,34.979C11.558,35.641 11.682,36.041 12.009,36.246C12.663,36.656 17.738,36.77 19.655,36.385L21.252,36.085L21.395,35.003C21.532,33.562 21.532,33.562 20.156,33.429C18.252,33.219 18.07,33.043 17.893,31.425C17.678,29.726 18.085,29.271 20.07,28.82C22.921,28.188 26.63,25.839 27.624,23.992C28.218,22.892 28.482,21.097 28.234,19.675C27.819,17.416 24.85,14.961 21.918,14.453C20.518,14.2 12.59,14.228 10.769,14.469C10.343,14.541 10.072,14.8 9.93,15.26ZM205.635,18.733C204.489,15.94 203.703,14.953 202.118,14.181C200.751,13.535 199.228,13.912 196.993,15.401C194.73,16.898 193.502,18.945 192.584,22.721C191.679,26.432 191.58,28.576 192.201,30.896C192.854,33.33 193.628,34.504 195.202,35.463C197.037,36.598 198.566,36.588 200.584,35.433C202.603,34.278 203.992,32.832 205.111,30.721C206.251,28.574 206.716,26.424 206.665,23.491C206.652,21.499 206.527,20.919 205.635,18.733ZM98.716,18.512C100.182,20.156 101.477,22.673 101.756,24.399C101.914,25.421 101.798,26.553 101.394,28.19C100.875,30.379 100.705,30.671 99.238,32.271C96.814,34.934 96.741,34.976 95.594,34.212C94.176,33.315 92.201,30.006 91.75,27.775C91.357,26.018 91.391,25.659 92.165,22.742C93.128,19.111 93.461,18.434 94.812,17.507C96.097,16.593 97.272,16.904 98.716,18.512ZM164.889,29.168C165.33,30.243 165.12,30.986 164.081,31.91C162.423,33.385 159.246,33.909 158.3,32.845C157.828,32.314 158.186,26.44 158.739,25.948C159.114,25.614 161.4,26.002 162.539,26.615C163.718,27.273 164.41,28.007 164.889,29.168ZM203.431,26.966C202.811,30.14 201.027,32.398 198.627,33.042C196.912,33.501 196.263,32.908 195.503,30.073C194.943,27.982 194.935,27.493 195.335,25.33C196.368,19.927 199.1,16.862 201.601,18.31C202.508,18.834 202.531,18.92 203.191,21.843C203.775,24.48 203.822,25.112 203.431,26.966ZM184.41,24.294C184.347,26.799 183.475,29.312 182.092,30.918C180.779,32.46 179.875,32.904 178.829,32.533C177.062,31.936 176.264,29.823 176.506,26.424C176.868,21.862 178.087,18.539 179.703,17.804C180.969,17.229 183.496,19.141 184.125,21.167C184.314,21.798 184.436,23.208 184.41,24.294ZM40.387,18.072C40.62,18.026 41.375,18.329 42.055,18.707C44.209,19.969 45.257,22.204 44.306,23.508C43.636,24.395 39.727,25.412 38.728,24.946C38.06,24.626 38.054,24.597 38.199,21.673C38.357,18.806 38.702,17.954 39.573,18.083C39.823,18.124 40.184,18.112 40.387,18.072ZM18.993,17.903C21.127,17.906 22.86,18.721 23.68,20.035C24.525,21.402 24.319,22.351 22.901,23.581C21.862,24.434 19.513,25.155 18.364,24.947C17.783,24.829 17.668,24.655 17.404,23.339C16.944,21.331 16.891,18.245 17.293,18.055C17.481,17.966 18.238,17.901 18.993,17.903ZM163.183,19.416C163.165,20.107 162.902,20.658 162.416,21.091C161.576,21.838 158.301,22.608 157.907,22.165C157.533,21.744 158.088,15.735 158.496,15.57C159.206,15.256 161.352,16.244 162.317,17.33C163.066,18.171 163.251,18.602 163.183,19.416Z"
            style="fill-rule:nonzero;" />
    </g>
</svg>